<?xml version="1.0" encoding="UTF-8" standalone="no"?>
<!-- Generator: Adobe Illustrator 21.0.0, SVG Export Plug-In . SVG Version: 6.00 Build 0)  -->

<svg
   xmlns:dc="http://purl.org/dc/elements/1.1/"
   xmlns:cc="http://creativecommons.org/ns#"
   xmlns:rdf="http://www.w3.org/1999/02/22-rdf-syntax-ns#"
   xmlns:svg="http://www.w3.org/2000/svg"
   xmlns="http://www.w3.org/2000/svg"
   xmlns:sodipodi="http://sodipodi.sourceforge.net/DTD/sodipodi-0.dtd"
   xmlns:inkscape="http://www.inkscape.org/namespaces/inkscape"
   version="1.1"
   id="Layer_1"
   x="0px"
   y="0px"
   viewBox="0 0 1432.0685 330.42719"
   xml:space="preserve"
   sodipodi:docname="butler.svg"
   width="1432.0685"
   height="330.42719"
   inkscape:version="0.92.1 r15371"><metadata
     id="metadata29"><rdf:RDF><cc:Work
         rdf:about=""><dc:format>image/svg+xml</dc:format><dc:type
           rdf:resource="http://purl.org/dc/dcmitype/StillImage" /><dc:title></dc:title></cc:Work></rdf:RDF></metadata><defs
     id="defs27" /><sodipodi:namedview
     pagecolor="#ffffff"
     bordercolor="#666666"
     borderopacity="1"
     objecttolerance="10"
     gridtolerance="10"
     guidetolerance="10"
     inkscape:pageopacity="0"
     inkscape:pageshadow="2"
     inkscape:window-width="1920"
     inkscape:window-height="1017"
     id="namedview25"
     showgrid="false"
     fit-margin-top="0"
     fit-margin-left="0"
     fit-margin-right="0"
     fit-margin-bottom="0"
     inkscape:zoom="0.27818448"
     inkscape:cx="546.2"
     inkscape:cy="229.6272"
     inkscape:window-x="-8"
     inkscape:window-y="-8"
     inkscape:window-maximized="1"
     inkscape:current-layer="Layer_1" /><style
     type="text/css"
     id="style2">
	.st0{fill:#AB866D;}
</style><g
     id="g22"
     transform="matrix(2.1724339,0,0,2.1724339,-297.18896,-615.23328)"><path
       class="st0"
       d="M 523.3,407.5 V 297.9 l 3.2,-14.5 h -39.3 l 3.2,14.5 v 122.7 l -3.2,14.5 76.9,0.1 v -32.7 l -15,4.9 h -25.8 z m 36.6,0.9 V 431 l -10,-10.6 H 506.8 V 297.2 l -14.3,-9.6 h 28.8 l -2.1,9.6 v 114.5 h 30.7 z"
       id="path4"
       inkscape:connector-curvature="0"
       style="fill:#ab866d" /><path
       class="st0"
       d="m 618.1,407.5 v -29.9 h 38.3 l 1.7,-27.8 h -40 v -38.7 h 28.1 l 16.7,4.8 V 283.3 H 582 l 3.2,14.7 v 122.7 l -3.2,14.5 86.7,0.1 v -32.7 l -14.9,4.9 z m 46.5,0.9 V 431 l -10.8,-10.6 h -51.4 v -58.1 -65.2 l -15,-9.7 h 71.5 v 22.8 l -11.9,-13 h -44.7 l 11.6,9.7 V 354 h 39.7 l -1.2,19.4 -8.2,-11 h -41.9 l 11.6,11.1 v 38.2 h 40.6 z"
       id="path6"
       inkscape:connector-curvature="0"
       style="fill:#ab866d" /><path
       class="st0"
       d="m 373.9,314.3 15.2,-3.2 h 13 v 109.6 l -3.2,14.5 h 39.3 L 435,420.7 V 311.1 h 11.1 l 16.6,3.1 v -30.9 h -88.9 v 31 z m 84.7,-26.8 v 21.6 l -10.8,-11.9 h -29.4 l 12.4,10.1 V 420.9 L 433,431 418.4,420.6 V 297.2 H 390 l -11.8,-9.7 z"
       id="path8"
       inkscape:connector-curvature="0"
       style="fill:#ab866d" /><path
       class="st0"
       d="m 783,419.8 -22.5,-45.2 7.6,-5.6 c 0.6,-0.4 14.5,-9.6 14.5,-26 v -24.4 c 0,-31.8 -23.5,-35.3 -33.6,-35.3 h -57.6 l 3.2,14.5 v 122.8 l -3.2,14.5 h 39.2 l -3.2,-14.5 v -22 l 8.6,-6.3 21.3,42.8 H 796 Z m -41,-49.9 -31,23.9 12.3,3.3 V 421 l 2.1,10 -14.4,-10.6 v -26.7 -96.6 l -14.3,-9.6 H 749 c 11,0 29.3,4 29.3,31 v 24.4 c 0,5.7 -2.1,10.5 -4.5,14.1 l -10.9,-5.9 c -1.9,3.4 -4.3,5.7 -6.1,7.2 l -14.8,11.6 13.1,3.4 24.2,48.6 7.6,9.1 -21.1,-10.6 z"
       id="path10"
       inkscape:connector-curvature="0"
       style="fill:#ab866d" /><path
       class="st0"
       d="m 723.2,371.7 26.7,-19.5 c 0.1,-0.1 2.7,-1.8 4.1,-5.7 l 8.9,4.8 c 1.6,-2.8 2.7,-6.3 2.7,-10.8 v -25.1 c 0,-12.8 -8.3,-18.2 -16,-18.2 h -38.7 l 12.3,9.4 z m 4.2,-61.1 h 15.9 c 5,0 7.5,2.7 7.5,8 v 22.2 c 0,5.5 -3.1,7.7 -3.3,7.8 l -20.1,14.7 z"
       id="path12"
       inkscape:connector-curvature="0"
       style="fill:#ab866d" /><path
       class="st0"
       d="m 213.5,358.1 -1.4,-1.1 c 4.1,-4 10.2,-11.7 10.2,-22.5 v -16 c 0,-31.8 -23.5,-35.3 -33.6,-35.3 h -51.9 l 3.2,14.5 v 122.8 l -3.2,14.5 h 57.6 c 10.1,0 33.6,-3.4 33.6,-35.3 v -16 c -0.1,-16.1 -14,-25.2 -14.5,-25.6 m 10.1,41.9 c 0,8.4 -1.8,14.6 -4.6,19.2 l -12,-6.5 c -3.8,6.9 -11.1,8.7 -19.7,8.7 v 0 H 154.5 V 333.6 297.2 L 142,287.6 h 46.7 c 11,0 29.3,4 29.3,31 v 16 c 0,10.9 -7.5,18.3 -10.7,21 l -2.1,1.7 5.8,4.2 c 0.1,0.1 12.5,8.3 12.5,22.5 v 16 z"
       id="path14"
       inkscape:connector-curvature="0"
       style="fill:#ab866d" /><path
       class="st0"
       d="m 308.6,283.4 3.6,14.6 v 102.6 c 0,5 -2.7,7.5 -8,7.5 h -6.5 c -5.3,0 -8,-2.5 -8,-7.5 V 298 l 3.6,-14.6 H 254 l 3.2,14.5 -0.1,103.8 c 0,15.5 10,33.6 38.1,33.6 h 11.6 c 28.1,0 38.1,-18.1 38.1,-33.6 l -0.1,-103.8 3.2,-14.5 z m 32,118.3 c 0,6.8 -1.8,12.3 -4.8,16.5 l -11.2,-6 c -3.6,5.4 -10.1,9.1 -19.9,9.1 h -7.5 c -15.7,0 -23.1,-9.5 -23.1,-20.2 l 0.1,-103.9 -14.9,-9.6 h 28.6 l -2.4,9.8 v 103.2 c 0,7.3 4.6,11.7 12.2,11.7 h 6.5 c 5,0 8.7,-1.9 10.6,-5.3 l 9.7,5.2 c 2.2,-3.3 3.2,-7.1 3.2,-11.2 l -0.1,-103.9 -13.8,-9.6 h 28.6 l -2.2,9.9 z"
       id="path16"
       inkscape:connector-curvature="0"
       style="fill:#ab866d" /><path
       class="st0"
       d="m 209.9,384.9 c 0,-12.4 -12.7,-20.2 -12.7,-20.2 l -9,-6.6 6.7,-5.7 c 0,0 9.4,-7.1 9.4,-18.9 v -18.1 c 0,-12.8 -8.3,-18.2 -16,-18.2 h -25.9 -7.7 l 14.1,10.8 v 22.5 l 19.5,14.3 v 0 13.3 l -33.6,-24.5 14.1,24.8 v 53.9 h 20.1 c 4.3,0 7.5,-1.6 9.5,-4.4 l 8.8,4.8 c 1.8,-3.3 2.9,-7.8 2.9,-13.8 v -14 z M 188,339.5 172.8,328.4 V 310.7 H 183 c 5,0 7.5,2.7 7.5,8 v 13.7 c 0,3.9 -1.5,6.1 -2.5,7.1 m 8.2,60.6 c 0,5.3 -2.5,8 -7.5,8 h -15.9 v -44.3 l 20.2,14.7 c 0.1,0.1 3.2,2.3 3.2,7.8 z"
       id="path18"
       inkscape:connector-curvature="0"
       style="fill:#ab866d" /><polygon
       class="st0"
       points=""
       id="polygon20"
       style="fill:#ab866d" /></g></svg>